<?xml version="1.0" standalone="no"?>
<!DOCTYPE svg PUBLIC "-//W3C//DTD SVG 20010904//EN"
 "http://www.w3.org/TR/2001/REC-SVG-20010904/DTD/svg10.dtd">
<svg version="1.0" xmlns="http://www.w3.org/2000/svg"
 width="406.000000pt" height="481.000000pt" viewBox="0 0 406.000000 481.000000"
 preserveAspectRatio="xMidYMid meet">

<g transform="translate(0.000000,481.000000) scale(0.100000,-0.100000)"
fill="#000000" stroke="none">
<path d="M10 4772 l0 -38 153 -12 c453 -37 940 -148 1331 -303 443 -177 822
-435 1067 -727 321 -383 479 -836 479 -1370 0 -257 -30 -451 -101 -665 -205
-614 -727 -1065 -1547 -1336 -356 -118 -848 -207 -1249 -227 l-133 -7 0 -40 0
-39 112 6 c544 32 1088 145 1512 312 902 358 1396 953 1475 1778 6 60 11 138
11 173 l0 63 470 0 470 0 0 40 0 40 -469 0 -468 0 -7 31 c-3 17 -6 49 -6 71 0
65 -29 244 -60 373 -106 444 -358 838 -725 1135 -513 417 -1295 695 -2165 770
-162 14 -150 16 -150 -28z"/>
</g>
</svg>
