<svg width="221" height="111" viewBox="0 0 221 111" fill="none" xmlns="http://www.w3.org/2000/svg">
<path fill-rule="evenodd" clip-rule="evenodd" d="M86.6672 83.919H90.5752H91.4085C92.7436 83.919 93.7718 84.0506 94.5027 84.3186C95.1508 84.5427 95.6624 84.9033 96.0376 85.3955C96.4177 85.8827 96.6077 86.409 96.6077 86.9742C96.6077 87.7588 96.2374 88.3971 95.5016 88.8892C96.1156 89.1475 96.6077 89.5032 96.9732 89.971C97.3386 90.4388 97.5189 90.9407 97.5189 91.4864C97.5189 92.6169 96.8611 93.5281 95.5503 94.2249C94.9607 94.5319 94.3175 94.7317 93.6158 94.8292C92.9093 94.9217 92.0858 94.9753 91.1307 94.99H86.6575V83.919H86.6672ZM125.718 61.782H128.88L138.046 77.56H133.597L131.234 73.4815H123.505L121.084 77.56H116.635L125.718 61.782ZM129.64 70.6407L127.306 65.8556L124.982 70.6407H129.64ZM139.61 74.7192L144.799 61.782H155.719V74.7192H157.196V77.56H138.255V74.7192H139.61ZM151.68 74.7192V64.6228H147.782L143.83 74.7241H151.68V74.7192ZM177.545 61.782V77.56H173.51V66.07L164.203 77.56H159.73V61.782H163.764V73.311L173.013 61.782H177.545ZM188.567 74.7192L179.635 61.782H184.176L190.487 71.3277L195.73 61.782H200.008L190.686 77.56H186.798L188.567 74.7192ZM220.868 73.2671C220.332 74.1978 219.538 75.0164 218.486 75.7279C217.433 76.4393 216.234 76.985 214.885 77.37C213.54 77.7549 212.161 77.945 210.757 77.945C209.213 77.945 207.761 77.7257 206.391 77.2969C205.022 76.8681 203.809 76.2639 202.761 75.4891C201.714 74.7143 200.905 73.8226 200.325 72.8188C199.75 71.815 199.457 70.7576 199.457 69.6564C199.457 68.1994 199.964 66.8399 200.978 65.5876C201.991 64.3304 203.356 63.3364 205.071 62.5957C206.791 61.8551 208.643 61.4847 210.631 61.4847C212.078 61.4847 213.491 61.6796 214.875 62.0743C216.264 62.4642 217.492 63.0245 218.559 63.7554C219.631 64.4864 220.44 65.3342 220.985 66.2942H216.385C215.703 65.6948 214.851 65.2173 213.822 64.8616C212.799 64.5107 211.742 64.3304 210.655 64.3304C209.369 64.3304 208.165 64.5741 207.069 65.0711C205.967 65.5681 205.095 66.2308 204.457 67.0689C203.814 67.9119 203.492 68.8134 203.492 69.7733C203.492 70.6845 203.823 71.5519 204.481 72.3803C205.134 73.2038 206.021 73.8665 207.132 74.3635C208.238 74.8556 209.422 75.109 210.684 75.109C212.755 75.109 214.583 74.495 216.171 73.272H220.868V73.2671ZM110.31 77.6234H83.5292V95.1118H72.8822V90.9992H41.521V81.926H72.8822V40.3905L14.6914 110.378H0L72.3559 23.3504L72.8822 22.7315L75.1675 20.0612V19.8566H110.31V40.3515C117.429 38.227 124.032 35.6298 130.167 32.5745C136.277 29.4998 139.342 26.4446 139.342 23.3893C139.342 20.8555 137.836 19.2572 134.82 18.5896C131.779 17.9221 127.56 17.5615 122.083 17.4982H68.5941L76.7852 0H131.321C146.632 0 157.781 2.06118 164.822 6.17868C171.863 10.2816 175.366 15.3639 175.366 21.3818C175.366 24.6465 174.27 27.8918 172.077 31.1371C169.885 34.3823 166.327 37.6617 161.396 40.9703C156.494 44.279 149.809 47.5924 141.403 50.9011C132.968 54.2097 122.614 57.377 110.315 60.403V77.6234H110.31ZM93.9131 91.5059C93.9131 91.1307 93.7669 90.8432 93.4745 90.6434C93.1773 90.4437 92.768 90.3413 92.2466 90.3413H90.2536V92.6462H92.193C92.7192 92.6462 93.1383 92.5487 93.4502 92.3538C93.7523 92.1637 93.9131 91.8763 93.9131 91.5059ZM93.0213 87.1302C93.0213 86.8524 92.9093 86.6331 92.6851 86.4821C92.4659 86.331 92.1491 86.2531 91.7496 86.2531H90.2439V88.0121H91.7496C92.1101 88.0121 92.4122 87.9293 92.6559 87.7636C92.8995 87.6028 93.0213 87.3884 93.0213 87.1302ZM97.6554 86.2726V83.919H107.859V86.2726H104.55V94.9851H100.969V86.2726H97.6554ZM124.071 89.474C124.071 90.5411 123.71 91.5205 122.999 92.422C122.287 93.3235 121.318 94.0349 120.09 94.5611C118.862 95.0825 117.536 95.3457 116.104 95.3457C114.695 95.3457 113.39 95.0825 112.176 94.5514C110.963 94.0203 109.998 93.304 109.287 92.4025C108.575 91.4962 108.215 90.5216 108.215 89.474C108.215 88.3922 108.575 87.3982 109.292 86.4918C110.008 85.5806 110.987 84.8692 112.23 84.3429C113.463 83.8215 114.812 83.5584 116.269 83.5584C117.702 83.5584 119.013 83.8264 120.207 84.3624C121.4 84.8984 122.346 85.6196 123.038 86.5308C123.725 87.4372 124.071 88.4214 124.071 89.474ZM113.024 87.1692C112.201 87.7831 111.791 88.5481 111.791 89.474C111.791 90.0587 111.981 90.5996 112.357 91.1064C112.732 91.6083 113.248 92.0078 113.911 92.3051C114.574 92.6023 115.3 92.7534 116.099 92.7534C116.922 92.7534 117.668 92.612 118.345 92.3245C119.018 92.0371 119.544 91.6472 119.919 91.1453C120.299 90.6434 120.489 90.0879 120.489 89.4789C120.489 88.8844 120.294 88.3289 119.904 87.8172C119.52 87.3056 118.988 86.9012 118.316 86.6039C117.644 86.3067 116.908 86.1556 116.099 86.1556C115.548 86.1556 114.993 86.2482 114.442 86.4334C113.887 86.6137 113.414 86.8622 113.024 87.1692ZM126.088 83.919H130.883L135.224 91.7106L139.556 83.919H144.356V94.9851H140.775V87.7734L136.701 94.9851H133.733L129.67 87.7734V94.9851H126.088V83.919ZM162.21 94.9851H158.921V93.4892C158.36 94.0495 157.605 94.5027 156.665 94.8389C155.719 95.1751 154.764 95.3457 153.809 95.3457C152.679 95.3457 151.646 95.1849 150.715 94.8584C149.784 94.5319 148.985 94.0739 148.318 93.4892C147.075 92.3879 146.456 91.043 146.456 89.4496C146.456 87.8806 147.095 86.5552 148.366 85.4783C149.848 84.2016 151.699 83.5633 153.912 83.5633C156.031 83.5633 157.703 84.1968 158.921 85.4734V83.9239H162.21V94.9851ZM154.506 86.1507C153.2 86.1507 152.128 86.4723 151.29 87.1155C150.452 87.7636 150.033 88.5725 150.033 89.5471C150.033 90.1416 150.233 90.6873 150.632 91.1746C151.027 91.6619 151.568 92.0468 152.245 92.3245C152.918 92.6023 153.653 92.7436 154.448 92.7436C155.295 92.7436 156.051 92.6023 156.713 92.3148C157.376 92.0273 157.893 91.6326 158.263 91.121C158.633 90.6142 158.814 90.0441 158.814 89.4204C158.814 88.8113 158.628 88.2558 158.268 87.7539C157.898 87.252 157.386 86.8622 156.733 86.5747C156.075 86.2969 155.334 86.1507 154.506 86.1507ZM162.415 86.2726V83.919H172.618V86.2726H169.31V94.9851H165.728V86.2726H162.415ZM187.894 83.919V94.9851H184.313V87.7734L177.949 94.9851H174.1V83.919H177.681V91.1697L183.982 83.919H187.894ZM190.803 83.919H194.385V89.1329L199.18 83.919H203.409L198.02 89.3327L204.291 94.9851H199.501L194.385 89.8102V94.9851H190.803V83.919ZM221 94.9851H217.711V93.4892C217.151 94.0495 216.395 94.5027 215.455 94.8389C214.509 95.1751 213.554 95.3457 212.599 95.3457C211.469 95.3457 210.436 95.1849 209.505 94.8584C208.574 94.5319 207.775 94.0739 207.108 93.4892C205.865 92.3879 205.246 91.043 205.246 89.4496C205.246 87.8806 205.885 86.5552 207.156 85.4783C208.638 84.2016 210.489 83.5633 212.702 83.5633C214.821 83.5633 216.493 84.1968 217.711 85.4734V83.9239H221V94.9851ZM213.296 86.1507C211.99 86.1507 210.918 86.4723 210.08 87.1155C209.242 87.7636 208.823 88.5725 208.823 89.5471C208.823 90.1416 209.023 90.6873 209.422 91.1746C209.817 91.6619 210.358 92.0468 211.035 92.3245C211.708 92.6023 212.443 92.7436 213.238 92.7436C214.086 92.7436 214.841 92.6023 215.504 92.3148C216.166 92.0273 216.683 91.6326 217.053 91.121C217.423 90.6142 217.604 90.0441 217.604 89.4204C217.604 88.8113 217.419 88.2558 217.058 87.7539C216.688 87.252 216.176 86.8622 215.523 86.5747C214.865 86.2969 214.129 86.1507 213.296 86.1507Z" fill="white"/>
</svg>
